<svg xmlns="http://www.w3.org/2000/svg" width="32" height="32" viewBox="0 0 24 24" fill="white">
  <path d="M19.633 7.997c.013.176.013.353.013.53 0 5.386-4.098 11.592-11.59 11.592A11.53 11.53 0 010 18.065a8.42 8.42 0 006.208-1.742 4.084 4.084 0 01-3.814-2.834c.254.04.508.066.775.066.374 0 .748-.053 1.096-.147A4.078 4.078 0 01.8 9.408v-.053a4.1 4.1 0 001.848.517A4.083 4.083 0 011.39 6.13a4.05 4.05 0 00-.554 2.053c0 1.42.722 2.674 1.822 3.41a4.093 4.093 0 01-1.848-.513v.053a4.086 4.086 0 003.277 4.004 4.11 4.11 0 01-1.837.067 4.093 4.093 0 003.825 2.84A8.233 8.233 0 010 21.542a11.616 11.616 0 006.29 1.84c7.547 0 11.675-6.254 11.675-11.677 0-.18-.007-.36-.013-.54a8.18 8.18 0 002.006-2.088 8.23 8.23 0 01-2.344.64 4.126 4.126 0 001.804-2.27 8.188 8.188 0 01-2.605.996 4.106 4.106 0 00-6.993 3.744A11.65 11.65 0 012.23 5.675a4.087 4.087 0 001.27 5.462 4.07 4.07 0 01-1.857-.512c0 1.877 1.332 3.44 3.1 3.8a4.141 4.141 0 01-1.852.07c.523 1.63 2.04 2.817 3.836 2.852A8.233 8.233 0 010 21.542a11.616 11.616 0 006.29 1.84c7.547 0 11.675-6.254 11.675-11.677 0-.18-.007-.36-.013-.54a8.18 8.18 0 002.006-2.088z"></path>
</svg>
