<svg xmlns="http://www.w3.org/2000/svg" width="32" height="32" viewBox="0 0 24 24" fill="white">
  <path d="M20.447 20.452H16.89v-5.568c0-1.328-.026-3.037-1.852-3.037-1.853 0-2.136 1.445-2.136 2.939v5.666H9.345V9h3.41v1.561h.046c.476-.9 1.637-1.85 3.368-1.85 3.6 0 4.267 2.37 4.267 5.455v6.286zM5.337 7.433a1.993 1.993 0 110-3.987 1.993 1.993 0 010 3.987zM6.998 20.452H3.677V9h3.321v11.452zM22.225 0H1.771C.792 0 0 .774 0 1.729v20.542C0 23.227.792 24 1.771 24h20.451C23.2 24 24 23.227 24 22.271V1.73C24 .774 23.2 0 22.225 0z"></path>
</svg>
